<svg width="42" height="28" viewBox="0 0 42 28" fill="none" xmlns="http://www.w3.org/2000/svg">
<path d="M39.0598 11.979L37.9722 7.62851C38.2695 7.56535 38.4927 7.30153 38.4927 6.98547V6.28402C38.4927 4.76103 37.2536 3.52203 35.7307 3.52203H30.7766V2.07516C30.7766 1.32572 30.167 0.716064 29.4176 0.716064H4.16489C3.41545 0.716064 2.8058 1.32572 2.8058 2.07516V14C2.8058 14.3632 3.10021 14.6577 3.46344 14.6577C3.82659 14.6577 4.12109 14.3633 4.12109 14V2.07516C4.12109 2.05096 4.14069 2.03135 4.16489 2.03135H29.4175C29.4417 2.03135 29.4613 2.05096 29.4613 2.07516V14.0002C29.4613 14.3634 29.7557 14.6579 30.1189 14.6579C30.4821 14.6579 30.7766 14.3634 30.7766 14.0002V13.2547H38.5342C38.5348 13.2547 38.5353 13.2549 38.5359 13.2549C38.5366 13.2549 38.5371 13.2548 38.5377 13.2548C39.4923 13.2554 40.3029 13.882 40.5813 14.7454H38.5364C38.1732 14.7454 37.8787 15.0398 37.8787 15.403V16.8059C37.8787 17.9421 38.8031 18.8665 39.9393 18.8665H40.6846V21.7599H38.9651C38.4002 20.1289 36.8498 18.9541 35.0291 18.9541C33.2084 18.9541 31.6578 20.1289 31.093 21.7599H30.7764V16.8058C30.7764 16.4427 30.482 16.1482 30.1188 16.1482C29.7556 16.1482 29.4611 16.4426 29.4611 16.8058V21.7598H15.817C15.2522 20.1288 13.7017 18.9539 11.881 18.9539C10.0603 18.9539 8.50976 20.1288 7.94497 21.7598H4.16489C4.14069 21.7598 4.12109 21.7402 4.12109 21.716V20.2692H6.97077C7.33392 20.2692 7.62841 19.9748 7.62841 19.6116C7.62841 19.2483 7.334 18.9539 6.97077 18.9539H0.657645C0.294492 18.9539 0 19.2483 0 19.6116C0 19.9748 0.29441 20.2692 0.657645 20.2692H2.80588V21.716C2.80588 22.4654 3.41554 23.0751 4.16497 23.0751H7.71725C7.71709 23.0897 7.71611 23.1042 7.71611 23.1189C7.71611 25.4154 9.58453 27.2838 11.881 27.2838C14.1775 27.2838 16.0459 25.4154 16.0459 23.1189C16.0459 23.1041 16.0449 23.0897 16.0447 23.0751H30.8653C30.8652 23.0897 30.8642 23.1042 30.8642 23.1189C30.8642 25.4154 32.7326 27.2838 35.0291 27.2838C37.3255 27.2838 39.194 25.4154 39.194 23.1189C39.194 23.1041 39.193 23.0897 39.1928 23.0751H41.3423C41.7054 23.0751 41.9999 22.7807 41.9999 22.4174V15.4029C42 13.671 40.7222 12.2321 39.0598 11.979ZM30.7766 4.83723H35.7307C36.5284 4.83723 37.1775 5.48626 37.1775 6.28402V6.32782H30.7766V4.83723ZM30.7766 11.9395V7.64303H36.6201L37.6943 11.9395H30.7766ZM11.881 25.9687C10.3097 25.9687 9.03131 24.6904 9.03131 23.119C9.03131 21.5477 10.3097 20.2694 11.881 20.2694C13.4523 20.2694 14.7307 21.5477 14.7307 23.119C14.7307 24.6904 13.4523 25.9687 11.881 25.9687ZM35.0292 25.9687C33.4579 25.9687 32.1795 24.6904 32.1795 23.119C32.1795 21.5477 33.4579 20.2694 35.0292 20.2694C36.6005 20.2694 37.8789 21.5477 37.8789 23.119C37.8789 24.6904 36.6005 25.9687 35.0292 25.9687ZM40.6848 17.5512H39.9395C39.5285 17.5512 39.1941 17.2168 39.1941 16.8058V16.0605H40.6847L40.6848 17.5512Z" fill="#515151"/>
<path d="M11.881 21.76C11.1316 21.76 10.5219 22.3697 10.5219 23.1191C10.5219 23.8686 11.1316 24.4782 11.881 24.4782C12.6305 24.4782 13.2401 23.8686 13.2401 23.1191C13.2401 22.3697 12.6305 21.76 11.881 21.76Z" fill="#515151"/>
<path d="M35.0292 21.76C34.2798 21.76 33.6701 22.3697 33.6701 23.1191C33.6701 23.8686 34.2798 24.4782 35.0292 24.4782C35.7787 24.4782 36.3883 23.8686 36.3883 23.1191C36.3883 22.3697 35.7787 21.76 35.0292 21.76Z" fill="#515151"/>
<path d="M27.3131 18.9541H17.4927C17.1295 18.9541 16.835 19.2485 16.835 19.6118C16.835 19.975 17.1295 20.2694 17.4927 20.2694H27.3131C27.6763 20.2694 27.9708 19.975 27.9708 19.6118C27.9708 19.2485 27.6764 18.9541 27.3131 18.9541Z" fill="#515151"/>
<path d="M10.4781 16.1483H2.06055C1.6974 16.1483 1.40291 16.4427 1.40291 16.8059C1.40291 17.1692 1.69732 17.4636 2.06055 17.4636H10.4781C10.8413 17.4636 11.1357 17.1692 11.1357 16.8059C11.1357 16.4427 10.8413 16.1483 10.4781 16.1483Z" fill="#515151"/>
<path d="M22.8679 7.22185C22.6112 6.9651 22.1947 6.9651 21.938 7.22194L16.0898 13.07L13.0475 10.0277C12.7906 9.77089 12.3742 9.77089 12.1175 10.0277C11.8607 10.2846 11.8607 10.7009 12.1175 10.9577L15.6248 14.465C15.7532 14.5935 15.9215 14.6577 16.0898 14.6577C16.258 14.6577 16.4264 14.5935 16.5547 14.465L22.8679 8.15192C23.1247 7.895 23.1247 7.47869 22.8679 7.22185Z" fill="#515151"/>
</svg>
